<svg xmlns="http://www.w3.org/2000/svg" style="display:none">
<symbol id="icon-ualogo" viewBox="0 0 100 60"><path d="M81.4,30c10.9-4.8,18.1-12,18.4-20c0,0-2.9-2.2-12.2-5.7c-8.2-3-14.4-3.7-14.4-3.7l0,17.8&#10;c0,2.7-1.1,5.4-3.1,7.8c-6.2-1.5-13-2.3-20.1-2.3c-7.2,0-14,0.8-20.2,2.3c-2-2.4-3.1-5.1-3.1-7.8l0-17.8c0,0-6.2,0.7-14.4,3.7&#10;C3,7.8,0.2,10,0.2,10c0.4,8,7.5,15.2,18.5,20C7.7,34.8,0.6,42,0.2,50c0,0,2.9,2.2,12.2,5.7c8.2,3,14.4,3.7,14.4,3.7l0-17.8&#10;c0-2.7,1.1-5.4,3.1-7.8c6.2,1.5,13,2.3,20.1,2.3c7.2,0,14-0.8,20.2-2.3c2,2.4,3.1,5.1,3.1,7.8l0,17.8c0,0,6.2-0.7,14.4-3.7&#10;C97,52.3,99.8,50,99.8,50C99.4,42,92.3,34.8,81.4,30L81.4,30z M50,34h-0.2c-6.5,0-11.7-1.6-15.6-4c3.9-2.4,9.1-4,15.6-4h0.4&#10;c6.5,0,11.7,1.6,15.6,4c-3.9,2.4-9.1,4-15.6,4H50L50,34z"/>
</symbol>
<symbol id="icon-bag" viewBox="0 0 100 100" stroke-width="10" fill="none">
<polygon points="89.3,95 10.6,95 6.4,29.9 93.5,29.9"/>
<path d="M27,44.8V28C27,15.3,37.3,5,50,5s23,10.3,23,23v16.8"/>
</symbol>
<symbol id="icon-search" viewBox="0 0 100 100" stroke-width="14" fill="none">
<circle cx="42" cy="39.5" r="32.5"/>
<line x1="63.2" y1="64.2" x2="92.5" y2="95.2"/>
</symbol>
<symbol id="icon-times" viewBox="0 0 100 100">
<line x1="15" y1="15" x2="85" y2="85"/>
<line x1="85" y1="15" x2="15" y2="85"/>
</symbol>
<symbol id="icon-plus" viewBox="0 0 100 100">
<line x1="0" y1="50" x2="100" y2="50"/>
<line stroke="currentColor" x1="50" y1="0" x2="50" y2="100"/>
</symbol>
<symbol id="icon-camera" viewBox="0 0 73 73">
<path d="M5.937 63.635H2V20.146a5 5 0 0 1 5-5h12.428a1 1 0 0 0 .714-.3l6.236-6.35A5 5 0 0 1 29.945 7h13.158a5 5 0 0 1 3.567 1.497l6.237 6.35a1 1 0 0 0 .713.3h13.098l4-.001v36.507c0 6.628-5.373 12-12 12H5.938v-.018zm60.78-44.489H53.62a5 5 0 0 1-3.567-1.496l-6.236-6.35a1 1 0 0 0-.714-.3H29.945a1 1 0 0 0-.713.3l-6.236 6.35a5 5 0 0 1-3.568 1.496H7a1 1 0 0 0-1 1v39.507h52.718a8 8 0 0 0 8-8V19.146zm-30.33 32.481c-7.731 0-14-6.268-14-14s6.269-14 14-14c7.733 0 14 6.268 14 14s-6.267 14-14 14zm0-4c5.524 0 10-4.477 10-10 0-5.522-4.476-10-10-10-5.522 0-10 4.478-10 10 0 5.523 4.478 10 10 10z" fill="#1D1D1D" fill-rule="nonzero" stroke="#1D1D1D"/>
</symbol>
<symbol id="icon-chevron-right" viewBox="0 0 50 100">
<polyline points="9.1,19.6 39.5,49.9 39.5,49.9 9.1,80.4"/>
</symbol>
<symbol id="icon-chevron-left" viewBox="0 0 50 100">
<polyline points="41,80.4 10.6,50.1 10.6,50.1 41,19.6"/>
</symbol>
<symbol id="icon-chevron-up" viewBox="0 0 100 50">
<polyline points="19.6,40.8 49.9,10.4 49.9,10.4 80.4,40.8"/>
</symbol>
<symbol id="icon-chevron-down" viewBox="0 0 100 50">
<polyline points="80.4,9.2 50.1,39.6 50.1,39.6 19.6,9.2"/>
</symbol>
<symbol id="icon-pause" viewBox="0 0 100 100" stroke-width="31" fill="none">
<line x1="27.5" y1="95" x2="27.5" y2="5"/>
<line x1="72.5" y1="95" x2="72.5" y2="5"/>
</symbol>
<symbol id="icon-play" viewBox="0 0 100 100">
<polygon stroke-width="0" points="87.5,50 12.5,93.3 12.5,6.7"/>
</symbol>
<symbol id="icon-chat" viewBox="0 0 100 100">
<path d="M100,29.2H14.8v57.2h62.6l13,13v-13h9.6V29.2L100,29.2z M84.6,71.3H30.2V44.2h54.4V71.3z&#10;M84.5,22.2H8.9v47.8H0V13.3h8.8V0.6l12.9,12.9h63v8.8H84.5z"/>
</symbol>
<symbol id="icon-phone" stroke-width="0" viewBox="0 0 100 100">
<path d="M26.1,73.8c9.8,9.8,16.5,14.4,23.2,17.8c4.9,2.5,16,6.5,20.6,7.5c4.5,1,10.5,1.4,17-1.8&#10;c6.5-3.2,9.8-5.5,11.4-10.4c1.6-4.8,1.7-6.7,1.6-8.1c-0.1-1.4-0.3-2.3-2.2-3.4l-19-11c-2.6-1.4-4.6-0.5-6.3,1.2&#10;c-2.5,2.5-4.5,5.4-6.6,7.7c-2.1,2.2-3.4,4-6.9,2.5c-4.4-1.9-14.3-8.5-20.3-14.5S25.9,45.4,24,41c-1.5-3.5,0.3-4.8,2.5-6.9&#10;c2.2-2.1,5.1-4.1,7.7-6.6c1.7-1.7,2.6-3.7,1.2-6.3l-11-19c-1.1-1.9-2-2.1-3.4-2.2s-3.3-0.1-8.1,1.6S5.7,6.5,2.5,13&#10;s-2.8,12.5-1.8,17s4.9,15.7,7.5,20.6C11.7,57.3,16.2,64,26.1,73.8z"/>
</symbol>
<symbol id="icon-pencil" viewBox="0 0 100 100">
<title>Edit</title>
<path d="M8.4,76l6-6L30,85.5l-6,6h-7.1v-8.4H8.4V76z M69.7,41.5c1,0,1.5,0.5,1.5,1.5c0,0.4-0.2,0.8-0.5,1.1L34.9,79.9&#10;c-0.3,0.3-0.7,0.5-1.1,0.5c-1,0-1.5-0.5-1.5-1.5c0-0.4,0.2-0.8,0.5-1.1L68.6,42C68.9,41.7,69.3,41.5,69.7,41.5z M82.4,45.1&#10;L54.9,17.6L0,72.5L0,100h27.5L82.4,45.1z M76,0c-2.3,0-4.3,0.8-5.9,2.4l-11,11l27.5,27.5l10.9-11c1.7-1.6,2.5-3.6,2.5-5.9&#10;c0-2.3-0.8-4.3-2.5-6L82,2.4C80.3,0.8,78.3,0,76,0z"/>
</symbol>
<symbol id="icon-email" stroke-width="0" viewBox="0 0 100 100">
<polygon points="100,21.9 100,76.8 72.6,49.5 "/>
<polygon points="0,76.8 0,21.9 27.4,49.5 "/>
<path d="M9.7,14.6h81.9L55.1,51.1c-2.2,2.2-6.9,2.2-9,0L9.7,14.6z"/>
<path d="M39.9,60.1l-2.5-2.8L9.7,84.9h81.9L64,57.3l-2.9,2.8C55.4,65.9,45.7,65.9,39.9,60.1z"/>
</symbol>
<symbol id="icon-cube" viewBox="0 0 100 100">
<path d="M53.8,44.5l38-13.8v37.7l-38,20.7V44.5z M8.6,22.7L50,7.6l41.4,15.1L50,37.7L8.6,22.7z M98,18.5&#10;c-0.9-1.3-2.1-2.2-3.6-2.8L52.6,0.5C51.7,0.2,50.9,0,50,0c-0.9,0-1.7,0.2-2.6,0.5L5.6,15.7c-1.5,0.6-2.7,1.5-3.6,2.8&#10;s-1.4,2.7-1.4,4.3v45.6c0,1.4,0.4,2.7,1.1,3.9c0.7,1.2,1.7,2.1,2.9,2.8l41.8,22.8c1.1,0.6,2.3,0.9,3.6,0.9s2.5-0.3,3.6-0.9L95.4,75&#10;c1.2-0.7,2.2-1.6,2.9-2.8c0.7-1.2,1.1-2.5,1.1-3.9V22.8C99.4,21.2,98.9,19.8,98,18.5z"/>
</symbol>
<symbol id="icon-mapmarker" viewBox="0 0 100 100">
<path d="M33.8,34.2c0-4.5,1.6-8.3,4.7-11.5S45.5,18,50,18s8.3,1.6,11.5,4.7c3.2,3.1,4.7,7,4.7,11.5&#10;s-1.6,8.3-4.7,11.5c-3.2,3.2-7,4.7-11.5,4.7s-8.3-1.6-11.5-4.7C35.4,42.5,33.8,38.6,33.8,34.2z M50,99c1-1.5,3.8-11.9,13.7-27.9&#10;C73.1,56,82.4,49.8,82.4,34.2c0-8.9-3.2-16.6-9.5-22.9S58.9,1.7,50,1.7s-16.6,3.2-22.9,9.5s-9.5,14-9.5,23&#10;c0,16.5,9.3,21.8,18.7,36.9C46.2,87.1,49.2,97.2,50,99"/>
</symbol>
<symbol id="icon-twitter" viewBox="0 0 100 100">
<path stroke-width="0" d="M88.3,21.9c4.4-2.7,7.4-6.4,9-11.3c-4,2.5-8.4,4.1-13,5c-4.1-4.3-9.1-6.5-15-6.5c-5.7,0-10.5,2-14.5,6&#10;s-6,8.8-6,14.5c0,1.5,0.2,3.1,0.5,4.7C40.9,33.9,33,31.8,25.7,28S12.1,19.1,7,12.8C5.1,16,4.2,19.5,4.2,23.2C4.2,26.7,5,30,6.7,33&#10;s3.9,5.4,6.7,7.3c-3.3-0.1-6.4-1-9.3-2.6V38c0,5,1.6,9.3,4.7,13.1s7.1,6.1,11.8,7.1c-1.8,0.5-3.6,0.7-5.4,0.7&#10;c-1.2,0-2.5-0.1-3.9-0.3c1.3,4.1,3.7,7.5,7.2,10.1c3.6,2.6,7.5,4,12,4.1c-7.5,5.9-16,8.8-25.5,8.8c-1.9,0-3.5-0.1-5-0.3&#10;c9.5,6.1,20,9.2,31.5,9.2c7.3,0,14.1-1.2,20.5-3.5s11.9-5.4,16.4-9.3s8.5-8.4,11.7-13.4c3.2-5,5.7-10.3,7.3-15.8&#10;c1.6-5.5,2.4-11,2.4-16.5c0-1.2-0.1-2.1-0.1-2.7c4-2.9,7.5-6.4,10.3-10.6C96.1,20.4,92.1,21.4,88.3,21.9z"/>
</symbol>
<symbol id="icon-instagram" viewBox="0 0 100 100">
<circle stroke-width="8.63" fill="none" cx="50.3" cy="50.1" r="20.9"/>
<circle stroke-width="0" cx="76.3" cy="23.9" r="5.9"/>
<path stroke-width="8.63" fill="none" d="M95.2,31.3c-0.4-8.2-2.9-14.5-7.3-19S77,5.4,68.8,4.9C65.3,4.7,59.1,4.6,50,4.6&#10;S34.8,4.7,31.3,4.9c-8.2,0.5-14.6,2.9-19,7.4s-6.9,10.8-7.4,19C4.7,34.8,4.6,41,4.6,50s0.1,15.3,0.3,18.8c0.4,8.2,2.9,14.5,7.3,19&#10;s10.8,6.9,19,7.3c3.5,0.2,9.7,0.3,18.8,0.3s15.2-0.1,18.8-0.3c8.2-0.4,14.5-2.9,19-7.3s6.9-10.8,7.3-19c0.2-3.5,0.3-9.7,0.3-18.8&#10;S95.4,34.8,95.2,31.3z"/>
</symbol>
<symbol id="icon-facebook" viewBox="0 0 55 100">
<path d="M38.3,1.6c-6.7,0-12,2-16,5.9s-6,9.5-6,16.7v12.6H1.5V54h14.8v44H34V54h14.7L51,36.9H34V25.9&#10;c0-2.8,0.6-4.9,1.7-6.3c1.2-1.4,3.4-2.1,6.7-2.1h9.1V2.3C48.4,1.8,44,1.6,38.3,1.6z"/>
</symbol>
<symbol id="icon-youtube" viewBox="0 0 512 512">
<path d="M422.6 193.6c-5.3-45.3-23.3-51.6-59-54 -50.8-3.5-164.3-3.5-215.1 0 -35.7 2.4-53.7 8.7-59 54 -4 33.6-4 91.1 0 124.8 5.3 45.3 23.3 51.6 59 54 50.9 3.5 164.3 3.5 215.1 0 35.7-2.4 53.7-8.7 59-54C426.6 284.8 426.6 227.3 422.6 193.6zM222.2 303.4v-94.6l90.7 47.3L222.2 303.4z"/>
</symbol>
<symbol id="icon-shopapp-login" viewBox="0 0 85 100">
<path stroke-width="0" d="M56.2,57c-2.2,3.2-7.7,5.8-14.1,5.8c-6.4,0-11.9-2.7-14.1-5.9C15,60.3,5.3,68.3,2.5,78.9&#10;c9.3,11.7,23.7,19.2,39.8,19.2c16.4,0,31-7.8,40.3-19.8C79.4,68,69.3,60.2,56.2,57 M42,52.4c10.7,0,19.4-15.9,19.4-29.2&#10;S52.7,2,42,2C31.3,2,22.6,9.9,22.6,23.2S31.3,52.4,42,52.4"/>
</symbol>
<symbol id="icon-review-stars" viewBox="0 0 594 100">
<path d="M297 82.9L264.5 100l6.2-36.2-26.2-25.6 36.3-5.3L297 0l16.3 32.9 36.3 5.3-26.3 25.6 6.2 36.2z"/>
<path d="M419 82.9L386.5 100l6.2-36.2-26.2-25.6 36.3-5.3L419 0l16.3 32.9 36.3 5.3-26.3 25.6 6.2 36.2z"/>
<path d="M541 82.9L508.5 100l6.2-36.2-26.2-25.6 36.3-5.3L541 0l16.3 32.9 36.3 5.3-26.3 25.6 6.2 36.2z"/>
<path d="M175 82.9L142.5 100l6.2-36.2-26.2-25.6 36.3-5.3L175 0l16.3 32.9 36.3 5.3-26.3 25.6 6.2 36.2z"/>
<path d="M53 82.9L20.5 100l6.2-36.2L.5 38.2l36.3-5.3L53 0l16.3 32.9 36.3 5.3-26.3 25.6 6.2 36.2z"/>
</symbol>
<symbol id="icon-review-star" viewBox="0 0 105 100">
<path d="M52.5 82.8L20.1 99.9l6.2-36.2L0 38.1l36.3-5.2L52.5 0l16.2 32.9 36.3 5.2-26.2 25.6 6.1 36.2z"/>
</symbol>
<symbol id="icon-alert" viewBox="0 0 25 25">
<path d="M13,13H11V7H13M13,17H11V15H13M12,2C6.48,2 2,6.48 2,12C2,17.52 6.48,22 12,22C17.52,22 22,17.52 22,12C22,6.48 17.52,2 12,2Z"/>
</symbol>
<symbol id="icon-lock" viewBox="0 0 12 14">
<path fill="#1D1D1D" fill-rule="evenodd" d="M0 6.222h12V14H0V6.222zm1.51 0v-2.13S1.082 0 6 0s4.49 4.126 4.49 4.126v2.096H8.878V4.094S9.151 1.709 6 1.709 3.123 3.998 3.123 3.998v2.224H1.509z"/>
</symbol>
</svg>